<svg xmlns="http://www.w3.org/2000/svg" version="1.1" id="Layer_1" x="0px" y="0px" width="100%"
     viewBox="1.463 -0.396 60.101 60.774" enable-background="new 0 0 1920 978">
    <path fill="url(#bg)" opacity="1.000000" stroke="none"
          d="M 4.584 34.252 C 4.584 30.635 4.584 27.017 4.59 23.368 C 4.649 23.316 4.719 23.318 4.75 23.273 C 4.873 23.095 4.983 22.898 5.104 22.716 C 5.564 22.028 6.13 21.628 6.836 21.632 C 7.048 21.634 7.261 21.652 7.472 21.671 C 8.048 21.722 8.627 21.776 9.204 21.828 C 9.707 21.874 10.208 21.918 10.711 21.963 C 11.095 21.996 11.48 22.028 11.864 22.065 C 12.437 22.12 13.009 22.181 13.58 22.233 C 14.059 22.279 14.538 22.313 15.017 22.358 C 15.604 22.413 16.19 22.473 16.776 22.529 C 17.165 22.565 17.555 22.595 17.945 22.632 C 18.511 22.686 19.078 22.746 19.645 22.798 C 20.279 22.857 20.913 22.905 21.547 22.964 C 22.109 23.016 22.672 23.08 23.235 23.134 C 23.812 23.188 24.39 23.237 24.967 23.289 C 25.466 23.333 25.963 23.383 26.46 23.427 C 26.935 23.47 27.408 23.511 27.882 23.555 C 28.38 23.601 28.878 23.652 29.375 23.698 C 29.704 23.728 30.032 23.753 30.363 23.785 C 30.849 23.831 31.337 23.882 31.824 23.928 C 32.303 23.97 32.782 24.005 33.261 24.051 C 33.823 24.105 34.386 24.169 34.949 24.222 C 35.527 24.277 36.104 24.336 36.682 24.373 C 37.015 24.395 37.355 24.434 37.68 24.373 C 39.047 24.115 39.94 22.193 39.48 20.474 C 39.269 19.682 38.987 18.923 38.732 18.152 C 38.185 16.489 37.637 14.828 37.086 13.168 C 36.982 12.855 36.937 12.541 37.018 12.207 C 37.128 11.756 37.377 11.51 37.71 11.389 C 37.815 11.389 37.921 11.389 38.042 11.402 C 38.168 11.474 38.284 11.514 38.381 11.595 C 38.845 11.978 39.305 12.374 39.765 12.763 C 40.815 13.65 41.866 14.534 42.914 15.421 C 43.833 16.197 44.75 16.978 45.669 17.754 C 46.649 18.584 47.633 19.41 48.616 20.24 C 49.672 21.133 50.731 22.028 51.787 22.922 C 52.971 23.924 54.155 24.927 55.341 25.928 C 56.188 26.644 57.034 27.359 57.881 28.074 C 58.152 28.301 58.421 28.532 58.692 28.761 C 58.896 28.933 58.994 29.205 59.086 29.484 C 59.086 29.66 59.086 29.836 59.077 30.035 C 58.975 30.424 58.784 30.668 58.538 30.874 C 57.488 31.749 56.447 32.642 55.401 33.526 C 54.161 34.574 52.919 35.619 51.678 36.668 C 50.45 37.706 49.223 38.746 47.995 39.785 C 46.806 40.791 45.616 41.795 44.427 42.799 C 43.709 43.407 42.988 44.015 42.269 44.623 C 41.346 45.403 40.427 46.189 39.501 46.962 C 39.032 47.355 38.553 47.724 38.079 48.104 C 37.956 48.104 37.832 48.104 37.688 48.094 C 37.087 47.887 36.822 47.122 37.073 46.376 C 37.191 46.029 37.309 45.682 37.422 45.333 C 38.062 43.398 38.699 41.46 39.341 39.526 C 39.546 38.914 39.645 38.29 39.563 37.619 C 39.39 36.193 38.416 35.075 37.326 35.088 C 36.969 35.091 36.613 35.138 36.256 35.171 C 35.711 35.225 35.168 35.286 34.624 35.338 C 34.154 35.383 33.685 35.415 33.215 35.461 C 32.516 35.528 31.819 35.606 31.12 35.674 C 30.51 35.731 29.899 35.777 29.289 35.836 C 28.59 35.903 27.892 35.981 27.193 36.049 C 26.634 36.105 26.077 36.155 25.518 36.208 C 25.049 36.252 24.579 36.299 24.11 36.342 C 23.636 36.386 23.162 36.427 22.688 36.472 C 22.21 36.517 21.732 36.568 21.252 36.612 C 20.793 36.656 20.334 36.693 19.873 36.737 C 19.315 36.791 18.758 36.852 18.2 36.906 C 17.81 36.945 17.42 36.973 17.03 37.011 C 16.482 37.064 15.933 37.124 15.386 37.176 C 14.92 37.221 14.454 37.255 13.99 37.299 C 13.418 37.355 12.847 37.416 12.273 37.471 C 11.894 37.508 11.514 37.539 11.134 37.575 C 10.59 37.629 10.046 37.688 9.502 37.74 C 8.944 37.795 8.386 37.851 7.828 37.896 C 7.44 37.928 7.049 37.981 6.662 37.962 C 6.129 37.936 5.695 37.599 5.355 37.067 C 4.952 36.438 4.774 35.679 4.667 34.883 C 4.639 34.672 4.612 34.462 4.584 34.252 Z"
          style=""/>
    <defs>
        <linearGradient id="bg" x1="30" y1="40" x2="67.7772" y2="39.7345"
                        gradientUnits="userSpaceOnUse">
            <stop offset="0.15937" stop-color="#3BEA62"/>
            <stop offset="0.5404" stop-color="#3C99CC"/>
            <stop offset="0.93739" stop-color="#6B57FF"/>
        </linearGradient>
    </defs>
</svg>